# xmcd
#
# Track frame offsets: 
#        150
#        14717
#        30384
#        36026
#        70822
#        89377
#        108377
#        124366
#        140314
#        158503
#        170282
#        192056
#        198719
#        222072
#
# Disc length: 3199 seconds
#
# Revision: 5
# Processed by: cddbd v1.5.2PL0 Copyright (c) Steve Scherf et al.
# Submitted via: ExactAudioCopy v1.3
#
DISCID=bb0c7d0e
DTITLE=Calexico - Hot Rail
DYEAR=2000
DGENRE=Americana
TTITLE0=El Picador
TTITLE1=Ballad of Cable Hogue
TTITLE2=Ritual Road Map
TTITLE3=Fade
TTITLE4=Untitled III
TTITLE5=Sonic Wind
TTITLE6=Muleta 
TTITLE7=Mid-Town
TTITLE8=Service and Repair
TTITLE9=Untitled II
TTITLE10=Drenched
TTITLE11=16 Track Scratch
TTITLE12=Tres Avisos 
TTITLE13=Hot Rail 
EXTD=YEAR: 2000
EXTT0=
EXTT1=
EXTT2=
EXTT3=
EXTT4=
EXTT5=
EXTT6=
EXTT7=
EXTT8=
EXTT9=
EXTT10=
EXTT11=
EXTT12=
EXTT13=
PLAYORDER=
